<svg width="142" height="31" viewBox="0 0 142 31" fill="none" xmlns="http://www.w3.org/2000/svg">
<path d="M19.2483 17.192C18.619 17.192 18.0163 17.1387 17.4403 17.032C16.8643 16.9253 16.3737 16.7867 15.9683 16.616L15.8403 13.832H16.8003L17.3603 15.96C17.6057 16.0987 17.883 16.2 18.1923 16.264C18.5123 16.328 18.8537 16.36 19.2163 16.36C20.0697 16.36 20.6777 16.1733 21.0403 15.8C21.403 15.4267 21.5843 14.9627 21.5843 14.408C21.5843 13.864 21.419 13.4427 21.0883 13.144C20.7577 12.8347 20.2457 12.536 19.5523 12.248L18.4803 11.784C17.6697 11.4427 17.051 11.0213 16.6243 10.52C16.2083 10.0187 16.0003 9.336 16.0003 8.472C16.0003 8.024 16.075 7.608 16.2243 7.224C16.3737 6.82933 16.603 6.488 16.9123 6.2C17.2217 5.90133 17.6163 5.672 18.0963 5.512C18.5763 5.34133 19.147 5.256 19.8083 5.256C20.5123 5.256 21.0937 5.304 21.5523 5.4C22.011 5.48533 22.4003 5.58133 22.7203 5.688L22.8483 8.296H21.9363L21.4083 6.344C21.2483 6.26933 21.0297 6.20533 20.7523 6.152C20.4857 6.09867 20.155 6.072 19.7603 6.072C19.1523 6.072 18.667 6.22667 18.3043 6.536C17.9523 6.84533 17.7763 7.272 17.7763 7.816C17.7763 8.27467 17.9097 8.648 18.1763 8.936C18.4537 9.21333 18.9017 9.48 19.5203 9.736L20.6243 10.184C21.5097 10.536 22.203 10.9573 22.7043 11.448C23.2163 11.9387 23.4723 12.6747 23.4723 13.656C23.4723 14.7013 23.1257 15.5547 22.4323 16.216C21.739 16.8667 20.6777 17.192 19.2483 17.192ZM32.1371 12.776H26.5531C26.5744 13.8533 26.8198 14.664 27.2891 15.208C27.7584 15.7413 28.4838 16.008 29.4651 16.008C29.9451 16.008 30.3664 15.9547 30.7291 15.848C31.1024 15.7413 31.4491 15.592 31.7691 15.4V16.088C31.5131 16.376 31.1238 16.6373 30.6011 16.872C30.0891 17.096 29.4704 17.208 28.7451 17.208C28.0198 17.208 27.3851 17.096 26.8411 16.872C26.3078 16.648 25.8704 16.3387 25.5291 15.944C25.1878 15.5387 24.9318 15.0533 24.7611 14.488C24.5904 13.9227 24.5051 13.304 24.5051 12.632C24.5051 11.9493 24.6011 11.336 24.7931 10.792C24.9958 10.2373 25.2731 9.77333 25.6251 9.4C25.9771 9.016 26.3984 8.72267 26.8891 8.52C27.3904 8.31733 27.9344 8.216 28.5211 8.216C29.7798 8.216 30.6971 8.6 31.2731 9.368C31.8491 10.1253 32.1371 11.2133 32.1371 12.632V12.776ZM28.4731 8.952C27.8651 8.952 27.3958 9.208 27.0651 9.72C26.7344 10.232 26.5531 11.016 26.5211 12.072L30.1371 11.944C30.1371 10.8667 29.9984 10.0987 29.7211 9.64C29.4544 9.18133 29.0384 8.952 28.4731 8.952ZM37.0702 17.192C36.3982 17.192 35.8062 17.0853 35.2942 16.872C34.7822 16.6587 34.3556 16.36 34.0142 15.976C33.6729 15.5813 33.4169 15.112 33.2462 14.568C33.0756 14.0133 32.9902 13.4 32.9902 12.728C32.9902 11.9707 33.1022 11.3093 33.3262 10.744C33.5609 10.1787 33.8756 9.70933 34.2702 9.336C34.6649 8.96267 35.1342 8.68533 35.6782 8.504C36.2329 8.312 36.8302 8.216 37.4702 8.216C37.9289 8.216 38.3662 8.24267 38.7822 8.296C39.2089 8.34933 39.5716 8.424 39.8702 8.52V10.808H38.9582L38.5582 9.112C38.4516 9.05867 38.3129 9.02133 38.1422 9C37.9716 8.968 37.7796 8.952 37.5662 8.952C36.7449 8.952 36.1156 9.25067 35.6782 9.848C35.2516 10.4347 35.0382 11.3147 35.0382 12.488C35.0382 13.7253 35.2782 14.6213 35.7582 15.176C36.2489 15.7307 36.9422 16.008 37.8382 16.008C38.3289 16.008 38.7449 15.96 39.0862 15.864C39.4276 15.7573 39.7316 15.6187 39.9982 15.448V16.12C39.6996 16.4187 39.3156 16.6747 38.8462 16.888C38.3769 17.0907 37.7849 17.192 37.0702 17.192ZM41.8546 9.432L40.7346 9.128V8.584L43.5666 8.264L43.8386 8.344V14.648C43.8386 15.1707 43.9666 15.5333 44.2226 15.736C44.4786 15.9387 44.8199 16.04 45.2466 16.04C45.6093 16.04 45.9346 15.9973 46.2226 15.912C46.5106 15.816 46.7879 15.7147 47.0546 15.608V9.432L45.9506 9.128V8.584L48.7506 8.264L49.0386 8.344V15.944L50.1106 16.28V16.792L47.3586 17.16L47.0866 17.112V16.2H47.0226C46.6493 16.4453 46.2333 16.6693 45.7746 16.872C45.3159 17.0747 44.8253 17.176 44.3026 17.176C43.4813 17.176 42.8679 16.9787 42.4626 16.584C42.0573 16.1787 41.8546 15.5813 41.8546 14.792V9.432ZM50.7052 8.68L53.5052 8.264L53.7452 8.344V9.832H53.8092C54.0546 9.29867 54.3746 8.89333 54.7692 8.616C55.1639 8.328 55.5959 8.184 56.0652 8.184C56.1719 8.184 56.2679 8.18933 56.3532 8.2C56.4492 8.21067 56.5186 8.22667 56.5612 8.248V10.024C56.4866 10.0133 56.3852 10.0027 56.2572 9.992C56.1399 9.97067 56.0172 9.96 55.8892 9.96C55.4519 9.96 55.0626 10.008 54.7212 10.104C54.3799 10.1893 54.0759 10.3227 53.8092 10.504V16.168L55.1212 16.472V17H50.7372V16.472L51.8092 16.168V9.496L50.7052 9.192V8.68ZM64.6371 12.776H59.0531C59.0744 13.8533 59.3198 14.664 59.7891 15.208C60.2584 15.7413 60.9838 16.008 61.9651 16.008C62.4451 16.008 62.8664 15.9547 63.2291 15.848C63.6024 15.7413 63.9491 15.592 64.2691 15.4V16.088C64.0131 16.376 63.6238 16.6373 63.1011 16.872C62.5891 17.096 61.9704 17.208 61.2451 17.208C60.5198 17.208 59.8851 17.096 59.3411 16.872C58.8078 16.648 58.3704 16.3387 58.0291 15.944C57.6878 15.5387 57.4318 15.0533 57.2611 14.488C57.0904 13.9227 57.0051 13.304 57.0051 12.632C57.0051 11.9493 57.1011 11.336 57.2931 10.792C57.4958 10.2373 57.7731 9.77333 58.1251 9.4C58.4771 9.016 58.8984 8.72267 59.3891 8.52C59.8904 8.31733 60.4344 8.216 61.0211 8.216C62.2798 8.216 63.1971 8.6 63.7731 9.368C64.3491 10.1253 64.6371 11.2133 64.6371 12.632V12.776ZM60.9731 8.952C60.3651 8.952 59.8958 9.208 59.5651 9.72C59.2344 10.232 59.0531 11.016 59.0211 12.072L62.6371 11.944C62.6371 10.8667 62.4984 10.0987 62.2211 9.64C61.9544 9.18133 61.5384 8.952 60.9731 8.952Z" fill="#FFE500"/>
<path d="M65.4422 17V16.376L66.7382 16.072V6.408L65.4422 6.088V5.464H69.5382L72.2582 13.816H72.3222L74.8982 5.464H79.1062V6.088L77.8102 6.424V16.04L79.1062 16.376V17H74.3862V16.376L75.5862 16.056V7H75.5062L72.5942 16.76H71.0902L67.8742 7H67.7942V16.072L68.9942 16.376V17H65.4422ZM87.3246 12.776H81.7406C81.7619 13.8533 82.0073 14.664 82.4766 15.208C82.9459 15.7413 83.6713 16.008 84.6526 16.008C85.1326 16.008 85.5539 15.9547 85.9166 15.848C86.2899 15.7413 86.6366 15.592 86.9566 15.4V16.088C86.7006 16.376 86.3113 16.6373 85.7886 16.872C85.2766 17.096 84.6579 17.208 83.9326 17.208C83.2073 17.208 82.5726 17.096 82.0286 16.872C81.4953 16.648 81.0579 16.3387 80.7166 15.944C80.3753 15.5387 80.1193 15.0533 79.9486 14.488C79.7779 13.9227 79.6926 13.304 79.6926 12.632C79.6926 11.9493 79.7886 11.336 79.9806 10.792C80.1833 10.2373 80.4606 9.77333 80.8126 9.4C81.1646 9.016 81.5859 8.72267 82.0766 8.52C82.5779 8.31733 83.1219 8.216 83.7086 8.216C84.9673 8.216 85.8846 8.6 86.4606 9.368C87.0366 10.1253 87.3246 11.2133 87.3246 12.632V12.776ZM83.6606 8.952C83.0526 8.952 82.5833 9.208 82.2526 9.72C81.9219 10.232 81.7406 11.016 81.7086 12.072L85.3246 11.944C85.3246 10.8667 85.1859 10.0987 84.9086 9.64C84.6419 9.18133 84.2259 8.952 83.6606 8.952ZM92.2577 11.832C93.0471 12.056 93.6177 12.376 93.9697 12.792C94.3324 13.208 94.5137 13.768 94.5137 14.472C94.5137 15.3147 94.2257 15.9867 93.6497 16.488C93.0844 16.9787 92.2311 17.224 91.0897 17.224C90.6097 17.224 90.1297 17.1813 89.6497 17.096C89.1804 17.0107 88.7377 16.8987 88.3217 16.76L88.2097 14.632H88.9777L89.5537 16.12C89.7564 16.216 89.9804 16.296 90.2257 16.36C90.4711 16.424 90.7537 16.456 91.0737 16.456C91.6817 16.456 92.1297 16.328 92.4177 16.072C92.7164 15.816 92.8657 15.4853 92.8657 15.08C92.8657 14.7493 92.7591 14.4773 92.5457 14.264C92.3431 14.04 91.9697 13.8533 91.4257 13.704L90.6097 13.448C89.8311 13.224 89.2444 12.9093 88.8497 12.504C88.4657 12.0987 88.2737 11.544 88.2737 10.84C88.2737 10.0933 88.5404 9.46933 89.0737 8.968C89.6071 8.46667 90.4124 8.216 91.4897 8.216C91.9804 8.216 92.4391 8.248 92.8657 8.312C93.2924 8.36533 93.6551 8.44 93.9537 8.536V10.504H93.1697L92.8017 9.176C92.6631 9.112 92.4817 9.064 92.2577 9.032C92.0444 9 91.8044 8.984 91.5377 8.984C90.9937 8.984 90.5884 9.10133 90.3217 9.336C90.0657 9.56 89.9377 9.85867 89.9377 10.232C89.9377 10.5627 90.0444 10.8293 90.2577 11.032C90.4711 11.2347 90.8657 11.4213 91.4417 11.592L92.2577 11.832ZM99.4452 11.832C100.235 12.056 100.805 12.376 101.157 12.792C101.52 13.208 101.701 13.768 101.701 14.472C101.701 15.3147 101.413 15.9867 100.837 16.488C100.272 16.9787 99.4186 17.224 98.2772 17.224C97.7972 17.224 97.3172 17.1813 96.8372 17.096C96.3679 17.0107 95.9252 16.8987 95.5092 16.76L95.3972 14.632H96.1652L96.7412 16.12C96.9439 16.216 97.1679 16.296 97.4132 16.36C97.6586 16.424 97.9412 16.456 98.2612 16.456C98.8692 16.456 99.3172 16.328 99.6052 16.072C99.9039 15.816 100.053 15.4853 100.053 15.08C100.053 14.7493 99.9466 14.4773 99.7332 14.264C99.5306 14.04 99.1572 13.8533 98.6132 13.704L97.7972 13.448C97.0186 13.224 96.4319 12.9093 96.0372 12.504C95.6532 12.0987 95.4612 11.544 95.4612 10.84C95.4612 10.0933 95.7279 9.46933 96.2612 8.968C96.7946 8.46667 97.5999 8.216 98.6772 8.216C99.1679 8.216 99.6266 8.248 100.053 8.312C100.48 8.36533 100.843 8.44 101.141 8.536V10.504H100.357L99.9892 9.176C99.8506 9.112 99.6692 9.064 99.4452 9.032C99.2319 9 98.9919 8.984 98.7252 8.984C98.1812 8.984 97.7759 9.10133 97.5092 9.336C97.2532 9.56 97.1252 9.85867 97.1252 10.232C97.1252 10.5627 97.2319 10.8293 97.4452 11.032C97.6586 11.2347 98.0532 11.4213 98.6292 11.592L99.4452 11.832ZM105.145 12.392L107.225 12.008V10.92C107.225 10.2373 107.118 9.74667 106.905 9.448C106.691 9.14933 106.265 9 105.625 9C105.39 9 105.177 9.02133 104.985 9.064C104.803 9.096 104.627 9.13333 104.457 9.176L103.977 10.856H103.081V8.712C103.443 8.616 103.891 8.50933 104.425 8.392C104.958 8.27467 105.513 8.216 106.089 8.216C107.145 8.216 107.929 8.41867 108.441 8.824C108.953 9.21867 109.209 9.864 109.209 10.76V16.088L110.249 16.392V16.872C110.099 16.9467 109.891 17.016 109.625 17.08C109.369 17.144 109.091 17.176 108.793 17.176C108.355 17.176 108.025 17.096 107.801 16.936C107.587 16.776 107.443 16.5467 107.369 16.248H107.289C107.043 16.5147 106.739 16.744 106.377 16.936C106.014 17.128 105.539 17.224 104.953 17.224C104.217 17.224 103.619 17.016 103.161 16.6C102.713 16.1733 102.489 15.6027 102.489 14.888C102.489 14.1627 102.718 13.6027 103.177 13.208C103.646 12.8133 104.302 12.5413 105.145 12.392ZM105.897 16.12C106.185 16.12 106.441 16.0773 106.665 15.992C106.889 15.896 107.075 15.7787 107.225 15.64V12.824L105.849 12.968C105.326 13.0213 104.963 13.1867 104.761 13.464C104.558 13.7307 104.457 14.0987 104.457 14.568C104.457 15.112 104.579 15.5067 104.825 15.752C105.07 15.9973 105.427 16.12 105.897 16.12ZM114.402 20.392C113.047 20.392 112.061 20.216 111.442 19.864C110.834 19.5227 110.53 19.0907 110.53 18.568C110.53 18.2373 110.679 17.9387 110.978 17.672C111.287 17.4053 111.73 17.1813 112.306 17V16.92C112.007 16.824 111.751 16.6427 111.538 16.376C111.335 16.1093 111.234 15.8 111.234 15.448C111.234 15.1067 111.346 14.7973 111.57 14.52C111.794 14.2427 112.125 14.0027 112.562 13.8V13.736C112.135 13.5333 111.762 13.208 111.442 12.76C111.133 12.3013 110.978 11.7787 110.978 11.192C110.978 10.712 111.063 10.2853 111.234 9.912C111.415 9.53867 111.655 9.22933 111.954 8.984C112.263 8.728 112.626 8.536 113.042 8.408C113.469 8.28 113.927 8.216 114.418 8.216C114.77 8.216 115.09 8.248 115.378 8.312C115.677 8.36533 115.949 8.44 116.194 8.536H116.274L118.61 8.168H118.69V9.464H118.578L116.898 9.144V9.24C117.207 9.464 117.447 9.74667 117.618 10.088C117.799 10.4187 117.89 10.7867 117.89 11.192C117.89 11.6827 117.799 12.1147 117.618 12.488C117.447 12.8507 117.207 13.1547 116.898 13.4C116.589 13.6453 116.221 13.832 115.794 13.96C115.367 14.0773 114.903 14.136 114.402 14.136C114.146 14.136 113.927 14.1253 113.746 14.104C113.565 14.072 113.383 14.0347 113.202 13.992C113.053 14.0987 112.925 14.216 112.818 14.344C112.722 14.472 112.674 14.6107 112.674 14.76C112.674 14.952 112.738 15.112 112.866 15.24C112.994 15.3573 113.197 15.416 113.474 15.416H116.114C116.978 15.416 117.65 15.56 118.13 15.848C118.621 16.136 118.866 16.6533 118.866 17.4C118.866 18.296 118.482 19.016 117.714 19.56C116.957 20.1147 115.853 20.392 114.402 20.392ZM115.97 11.16C115.97 10.3493 115.831 9.768 115.554 9.416C115.277 9.05333 114.898 8.872 114.418 8.872C113.927 8.872 113.549 9.05333 113.282 9.416C113.026 9.77867 112.898 10.3547 112.898 11.144C112.898 11.944 113.031 12.52 113.298 12.872C113.565 13.224 113.938 13.4 114.418 13.4C114.919 13.4 115.303 13.2187 115.57 12.856C115.837 12.4827 115.97 11.9173 115.97 11.16ZM114.402 19.672C115.405 19.672 116.13 19.5173 116.578 19.208C117.026 18.8987 117.25 18.5147 117.25 18.056C117.25 17.7467 117.149 17.512 116.946 17.352C116.743 17.2027 116.386 17.128 115.874 17.128H113.154C112.802 17.288 112.546 17.4693 112.386 17.672C112.226 17.8853 112.146 18.0987 112.146 18.312C112.146 18.7173 112.306 19.0427 112.626 19.288C112.946 19.544 113.538 19.672 114.402 19.672ZM121.347 4.776C121.667 4.776 121.945 4.888 122.179 5.112C122.414 5.32533 122.531 5.592 122.531 5.912C122.531 6.22133 122.414 6.488 122.179 6.712C121.945 6.92533 121.667 7.032 121.347 7.032C121.017 7.032 120.739 6.92533 120.515 6.712C120.291 6.488 120.179 6.22133 120.179 5.912C120.179 5.592 120.291 5.32533 120.515 5.112C120.739 4.888 121.017 4.776 121.347 4.776ZM119.315 8.68L122.179 8.264L122.419 8.344V16.168L123.523 16.472V17H119.331V16.472L120.419 16.168V9.496L119.315 9.192V8.68ZM124.034 16.456L125.106 16.152V9.48L124.002 9.192V8.68L126.802 8.264L127.058 8.344V9.192H127.138C127.533 8.92533 127.981 8.696 128.482 8.504C128.983 8.312 129.495 8.216 130.018 8.216C130.807 8.216 131.394 8.39733 131.778 8.76C132.162 9.112 132.354 9.69333 132.354 10.504V16.152L133.426 16.456V17H129.346V16.456L130.354 16.184V10.808C130.354 10.2853 130.226 9.91733 129.97 9.704C129.714 9.48 129.373 9.368 128.946 9.368C128.583 9.368 128.253 9.416 127.954 9.512C127.655 9.59733 127.373 9.69333 127.106 9.8V16.184L128.114 16.456V17H124.034V16.456ZM137.371 20.392C136.016 20.392 135.029 20.216 134.411 19.864C133.803 19.5227 133.499 19.0907 133.499 18.568C133.499 18.2373 133.648 17.9387 133.947 17.672C134.256 17.4053 134.699 17.1813 135.275 17V16.92C134.976 16.824 134.72 16.6427 134.507 16.376C134.304 16.1093 134.203 15.8 134.203 15.448C134.203 15.1067 134.315 14.7973 134.539 14.52C134.763 14.2427 135.093 14.0027 135.531 13.8V13.736C135.104 13.5333 134.731 13.208 134.411 12.76C134.101 12.3013 133.947 11.7787 133.947 11.192C133.947 10.712 134.032 10.2853 134.203 9.912C134.384 9.53867 134.624 9.22933 134.923 8.984C135.232 8.728 135.595 8.536 136.011 8.408C136.437 8.28 136.896 8.216 137.387 8.216C137.739 8.216 138.059 8.248 138.347 8.312C138.645 8.36533 138.917 8.44 139.163 8.536H139.243L141.579 8.168H141.659V9.464H141.547L139.867 9.144V9.24C140.176 9.464 140.416 9.74667 140.587 10.088C140.768 10.4187 140.859 10.7867 140.859 11.192C140.859 11.6827 140.768 12.1147 140.587 12.488C140.416 12.8507 140.176 13.1547 139.867 13.4C139.557 13.6453 139.189 13.832 138.763 13.96C138.336 14.0773 137.872 14.136 137.371 14.136C137.115 14.136 136.896 14.1253 136.715 14.104C136.533 14.072 136.352 14.0347 136.171 13.992C136.021 14.0987 135.893 14.216 135.787 14.344C135.691 14.472 135.643 14.6107 135.643 14.76C135.643 14.952 135.707 15.112 135.835 15.24C135.963 15.3573 136.165 15.416 136.443 15.416H139.083C139.947 15.416 140.619 15.56 141.099 15.848C141.589 16.136 141.835 16.6533 141.835 17.4C141.835 18.296 141.451 19.016 140.683 19.56C139.925 20.1147 138.821 20.392 137.371 20.392ZM138.939 11.16C138.939 10.3493 138.8 9.768 138.523 9.416C138.245 9.05333 137.867 8.872 137.387 8.872C136.896 8.872 136.517 9.05333 136.251 9.416C135.995 9.77867 135.867 10.3547 135.867 11.144C135.867 11.944 136 12.52 136.267 12.872C136.533 13.224 136.907 13.4 137.387 13.4C137.888 13.4 138.272 13.2187 138.539 12.856C138.805 12.4827 138.939 11.9173 138.939 11.16ZM137.371 19.672C138.373 19.672 139.099 19.5173 139.547 19.208C139.995 18.8987 140.219 18.5147 140.219 18.056C140.219 17.7467 140.117 17.512 139.915 17.352C139.712 17.2027 139.355 17.128 138.843 17.128H136.123C135.771 17.288 135.515 17.4693 135.355 17.672C135.195 17.8853 135.115 18.0987 135.115 18.312C135.115 18.7173 135.275 19.0427 135.595 19.288C135.915 19.544 136.507 19.672 137.371 19.672Z" fill="white"/>
<path fill-rule="evenodd" clip-rule="evenodd" d="M1.87503 7.37502C1.87503 5.64912 3.27414 4.25 5.00004 4.25C6.72593 4.25 8.12505 5.64912 8.12505 7.37502H9.37506C9.37506 4.95876 7.41629 3 5.00004 3C2.58378 3 0.625022 4.95876 0.625022 7.37502H1.87503ZM0.625008 7.37503V8.93755H0.625L0 9.56255V17.0625L0.625 17.6875H9.37501L10 17.0625V9.56255L9.37504 8.93758V7.37503H8.12504V8.93755H1.87501V7.37503H0.625008ZM5.93749 12.375C5.93749 12.7832 5.67663 13.1305 5.31252 13.2592V14.5625H4.68752V13.2592C4.32338 13.1305 4.06249 12.7833 4.06249 12.375C4.06249 11.8573 4.48222 11.4375 4.99999 11.4375C5.51776 11.4375 5.93749 11.8573 5.93749 12.375Z" fill="#FFE500"/>
<path d="M41.5217 24.194H42.2957V24.581H42.3407C42.4847 24.443 42.6737 24.329 42.9077 24.239C43.1477 24.149 43.4147 24.104 43.7087 24.104C43.9607 24.104 44.2037 24.143 44.4377 24.221C44.6717 24.293 44.8787 24.416 45.0587 24.59C45.2387 24.764 45.3797 24.992 45.4817 25.274C45.5897 25.556 45.6437 25.907 45.6437 26.327V26.732C45.6437 27.146 45.5927 27.503 45.4907 27.803C45.3947 28.103 45.2537 28.349 45.0677 28.541C44.8817 28.727 44.6567 28.865 44.3927 28.955C44.1287 29.045 43.8347 29.09 43.5107 29.09C43.2407 29.09 43.0067 29.06 42.8087 29C42.6167 28.934 42.4577 28.862 42.3317 28.784V30.827H41.5217V24.194ZM43.4387 28.424C43.6547 28.424 43.8467 28.397 44.0147 28.343C44.1827 28.289 44.3237 28.199 44.4377 28.073C44.5577 27.947 44.6477 27.785 44.7077 27.587C44.7737 27.383 44.8067 27.134 44.8067 26.84V26.363C44.8067 26.063 44.7767 25.814 44.7167 25.616C44.6567 25.412 44.5697 25.25 44.4557 25.13C44.3477 25.01 44.2097 24.926 44.0417 24.878C43.8797 24.83 43.6937 24.806 43.4837 24.806C43.2197 24.806 42.9857 24.842 42.7817 24.914C42.5837 24.986 42.4337 25.058 42.3317 25.13V28.091C42.4337 28.175 42.5837 28.253 42.7817 28.325C42.9797 28.391 43.1987 28.424 43.4387 28.424ZM48.5878 29.09C47.8978 29.09 47.3638 28.892 46.9858 28.496C46.6138 28.1 46.4278 27.545 46.4278 26.831V26.399C46.4278 26.045 46.4788 25.727 46.5808 25.445C46.6888 25.163 46.8358 24.923 47.0218 24.725C47.2138 24.527 47.4418 24.374 47.7058 24.266C47.9758 24.158 48.2728 24.104 48.5968 24.104C49.2748 24.104 49.8028 24.305 50.1808 24.707C50.5588 25.109 50.7478 25.664 50.7478 26.372V26.795C50.7478 27.149 50.6938 27.47 50.5858 27.758C50.4838 28.04 50.3368 28.28 50.1448 28.478C49.9588 28.676 49.7338 28.829 49.4698 28.937C49.2058 29.039 48.9118 29.09 48.5878 29.09ZM48.6058 28.424C49.0198 28.424 49.3378 28.292 49.5598 28.028C49.7878 27.764 49.9018 27.383 49.9018 26.885V26.354C49.9018 26.054 49.8658 25.805 49.7938 25.607C49.7278 25.403 49.6348 25.241 49.5148 25.121C49.3948 24.995 49.2538 24.908 49.0918 24.86C48.9358 24.806 48.7648 24.779 48.5788 24.779C48.1588 24.779 47.8348 24.914 47.6068 25.184C47.3788 25.454 47.2648 25.832 47.2648 26.318V26.849C47.2648 27.155 47.2978 27.41 47.3638 27.614C47.4358 27.812 47.5318 27.971 47.6518 28.091C47.7778 28.211 47.9218 28.298 48.0838 28.352C48.2458 28.4 48.4198 28.424 48.6058 28.424ZM51.3639 24.194H52.2369L52.7409 26.237C52.7889 26.435 52.8369 26.66 52.8849 26.912C52.9389 27.158 52.9869 27.392 53.0289 27.614C53.0769 27.872 53.1219 28.13 53.1639 28.388H53.1999C53.2479 28.124 53.2989 27.863 53.3529 27.605C53.4009 27.383 53.4519 27.149 53.5059 26.903C53.5599 26.651 53.6169 26.426 53.6769 26.228L54.2709 24.194H55.0179L55.6119 26.228C55.6719 26.426 55.7289 26.651 55.7829 26.903C55.8429 27.149 55.8969 27.383 55.9449 27.605C55.9989 27.863 56.0499 28.124 56.0979 28.388H56.1339C56.1759 28.13 56.2209 27.872 56.2689 27.614C56.3109 27.392 56.3559 27.158 56.4039 26.912C56.4579 26.66 56.5089 26.435 56.5569 26.237L57.0699 24.194H57.8439L56.5029 29H55.6839L55.0269 26.777C54.9789 26.621 54.9309 26.435 54.8829 26.219C54.8349 26.003 54.7929 25.799 54.7569 25.607C54.7149 25.379 54.6729 25.148 54.6309 24.914H54.5949C54.5529 25.148 54.5109 25.379 54.4689 25.607C54.4329 25.799 54.3909 26.003 54.3429 26.219C54.2949 26.435 54.2469 26.621 54.1989 26.777L53.5329 29H52.7049L51.3639 24.194ZM60.719 29.09C60.347 29.09 60.02 29.036 59.738 28.928C59.456 28.82 59.219 28.667 59.027 28.469C58.841 28.265 58.7 28.022 58.604 27.74C58.508 27.458 58.46 27.143 58.46 26.795V26.39C58.46 25.994 58.517 25.652 58.631 25.364C58.745 25.076 58.898 24.839 59.09 24.653C59.282 24.467 59.504 24.329 59.756 24.239C60.008 24.149 60.269 24.104 60.539 24.104C61.193 24.104 61.676 24.29 61.988 24.662C62.306 25.028 62.465 25.568 62.465 26.282V26.84H59.297C59.303 27.41 59.441 27.809 59.711 28.037C59.981 28.265 60.359 28.379 60.845 28.379C61.163 28.379 61.433 28.349 61.655 28.289C61.883 28.223 62.105 28.133 62.321 28.019V28.622C62.183 28.73 61.979 28.835 61.709 28.937C61.445 29.039 61.115 29.09 60.719 29.09ZM60.503 24.77C60.365 24.77 60.227 24.791 60.089 24.833C59.951 24.875 59.822 24.95 59.702 25.058C59.588 25.16 59.492 25.301 59.414 25.481C59.342 25.661 59.303 25.892 59.297 26.174H61.601C61.601 25.67 61.508 25.31 61.322 25.094C61.136 24.878 60.863 24.77 60.503 24.77ZM63.5207 24.194H64.2947V24.761H64.3397C64.4057 24.683 64.4897 24.608 64.5917 24.536C64.6937 24.458 64.8047 24.389 64.9247 24.329C65.0447 24.269 65.1677 24.224 65.2937 24.194C65.4257 24.158 65.5547 24.14 65.6807 24.14C65.8187 24.14 65.9177 24.152 65.9777 24.176V24.914C65.9177 24.902 65.8517 24.893 65.7797 24.887C65.7137 24.881 65.6597 24.878 65.6177 24.878C65.3957 24.878 65.1677 24.917 64.9337 24.995C64.6997 25.073 64.4987 25.169 64.3307 25.283V29H63.5207V24.194ZM68.7962 29.09C68.4242 29.09 68.0972 29.036 67.8152 28.928C67.5332 28.82 67.2962 28.667 67.1042 28.469C66.9182 28.265 66.7772 28.022 66.6812 27.74C66.5852 27.458 66.5372 27.143 66.5372 26.795V26.39C66.5372 25.994 66.5942 25.652 66.7082 25.364C66.8222 25.076 66.9752 24.839 67.1672 24.653C67.3592 24.467 67.5812 24.329 67.8332 24.239C68.0852 24.149 68.3462 24.104 68.6162 24.104C69.2702 24.104 69.7532 24.29 70.0652 24.662C70.3832 25.028 70.5422 25.568 70.5422 26.282V26.84H67.3742C67.3802 27.41 67.5182 27.809 67.7882 28.037C68.0582 28.265 68.4362 28.379 68.9222 28.379C69.2402 28.379 69.5102 28.349 69.7322 28.289C69.9602 28.223 70.1822 28.133 70.3982 28.019V28.622C70.2602 28.73 70.0562 28.835 69.7862 28.937C69.5222 29.039 69.1922 29.09 68.7962 29.09ZM68.5802 24.77C68.4422 24.77 68.3042 24.791 68.1662 24.833C68.0282 24.875 67.8992 24.95 67.7792 25.058C67.6652 25.16 67.5692 25.301 67.4912 25.481C67.4192 25.661 67.3802 25.892 67.3742 26.174H69.6782C69.6782 25.67 69.5852 25.31 69.3992 25.094C69.2132 24.878 68.9402 24.77 68.5802 24.77ZM73.2809 29.09C73.0529 29.09 72.8219 29.054 72.5879 28.982C72.3599 28.91 72.1499 28.79 71.9579 28.622C71.7719 28.448 71.6189 28.22 71.4989 27.938C71.3849 27.656 71.3279 27.305 71.3279 26.885V26.489C71.3279 26.069 71.3789 25.709 71.4809 25.409C71.5889 25.109 71.7359 24.863 71.9219 24.671C72.1079 24.479 72.3299 24.338 72.5879 24.248C72.8459 24.152 73.1279 24.104 73.4339 24.104C73.7219 24.104 73.9619 24.137 74.1539 24.203C74.3519 24.263 74.5139 24.329 74.6399 24.401V22.079H75.4499V29H74.7659L74.6849 28.613H74.6399C74.5019 28.757 74.3189 28.874 74.0909 28.964C73.8689 29.048 73.5989 29.09 73.2809 29.09ZM73.5419 28.424C73.8059 28.424 74.0279 28.382 74.2079 28.298C74.3939 28.208 74.5379 28.121 74.6399 28.037V25.094C74.5379 25.01 74.3849 24.941 74.1809 24.887C73.9829 24.833 73.7669 24.806 73.5329 24.806C73.3169 24.806 73.1249 24.833 72.9569 24.887C72.7889 24.941 72.6449 25.031 72.5249 25.157C72.4109 25.277 72.3209 25.439 72.2549 25.643C72.1949 25.841 72.1649 26.084 72.1649 26.372V26.849C72.1649 27.155 72.1979 27.41 72.2639 27.614C72.3299 27.812 72.4229 27.971 72.5429 28.091C72.6689 28.211 72.8159 28.298 72.9839 28.352C73.1519 28.4 73.3379 28.424 73.5419 28.424ZM80.8056 29.126C80.6676 29.126 80.5176 29.12 80.3556 29.108C80.1996 29.096 80.0436 29.078 79.8876 29.054C79.7316 29.03 79.5816 29.003 79.4376 28.973C79.2936 28.937 79.1706 28.898 79.0686 28.856V22.079H79.8786V24.491H79.9236C80.1036 24.377 80.3046 24.284 80.5266 24.212C80.7546 24.14 81.0306 24.104 81.3546 24.104C81.5766 24.104 81.7956 24.137 82.0116 24.203C82.2336 24.269 82.4316 24.383 82.6056 24.545C82.7796 24.707 82.9206 24.929 83.0286 25.211C83.1366 25.487 83.1906 25.838 83.1906 26.264V26.768C83.1906 27.506 82.9896 28.085 82.5876 28.505C82.1856 28.919 81.5916 29.126 80.8056 29.126ZM80.8686 28.433C81.0666 28.433 81.2526 28.409 81.4266 28.361C81.6066 28.313 81.7656 28.232 81.9036 28.118C82.0416 27.998 82.1496 27.839 82.2276 27.641C82.3116 27.443 82.3536 27.191 82.3536 26.885V26.318C82.3536 26.024 82.3236 25.781 82.2636 25.589C82.2096 25.391 82.1256 25.235 82.0116 25.121C81.8976 25.007 81.7536 24.926 81.5796 24.878C81.4056 24.83 81.2016 24.806 80.9676 24.806C80.7456 24.806 80.5356 24.839 80.3376 24.905C80.1396 24.971 79.9866 25.028 79.8786 25.076V28.271C79.9806 28.307 80.1096 28.343 80.2656 28.379C80.4276 28.415 80.6286 28.433 80.8686 28.433ZM84.4808 30.863C84.3728 30.863 84.2618 30.848 84.1478 30.818C84.0338 30.794 83.9438 30.761 83.8778 30.719V30.143C83.9378 30.155 84.0068 30.164 84.0848 30.17C84.1688 30.176 84.2528 30.179 84.3368 30.179C84.5528 30.179 84.7388 30.122 84.8948 30.008C85.0568 29.9 85.1858 29.717 85.2818 29.459L85.4978 28.874L83.6438 24.194H84.5258L85.2998 26.273C85.3718 26.471 85.4408 26.684 85.5068 26.912C85.5788 27.14 85.6418 27.35 85.6958 27.542C85.7618 27.77 85.8218 27.995 85.8758 28.217H85.9028C85.9568 27.989 86.0168 27.761 86.0828 27.533C86.1368 27.341 86.1968 27.131 86.2628 26.903C86.3288 26.675 86.3948 26.465 86.4608 26.273L87.1628 24.194H87.9728L86.0288 29.567C85.9448 29.801 85.8548 29.999 85.7588 30.161C85.6628 30.323 85.5548 30.455 85.4348 30.557C85.3148 30.665 85.1768 30.743 85.0208 30.791C84.8648 30.839 84.6848 30.863 84.4808 30.863ZM92.758 29.054C92.566 29.054 92.389 29.033 92.227 28.991C92.065 28.949 91.924 28.88 91.804 28.784C91.69 28.688 91.597 28.568 91.525 28.424C91.459 28.274 91.426 28.091 91.426 27.875V24.878H90.616V24.194H91.426V23.06H92.245V24.194H93.568V24.878H92.245V27.758C92.245 27.986 92.296 28.148 92.398 28.244C92.506 28.334 92.695 28.379 92.965 28.379C93.067 28.379 93.184 28.37 93.316 28.352C93.448 28.334 93.562 28.31 93.658 28.28V28.829C93.556 28.883 93.433 28.934 93.289 28.982C93.145 29.03 92.968 29.054 92.758 29.054ZM94.5725 22.079H95.3825V24.59H95.4275C95.6195 24.452 95.8535 24.338 96.1295 24.248C96.4115 24.152 96.6965 24.104 96.9845 24.104C97.4525 24.104 97.7975 24.209 98.0195 24.419C98.2475 24.623 98.3615 24.959 98.3615 25.427V29H97.5515V25.598C97.5515 25.46 97.5365 25.343 97.5065 25.247C97.4825 25.145 97.4345 25.064 97.3625 25.004C97.2965 24.938 97.2035 24.89 97.0835 24.86C96.9635 24.83 96.8105 24.815 96.6245 24.815C96.4145 24.815 96.1985 24.848 95.9765 24.914C95.7545 24.98 95.5565 25.052 95.3825 25.13V29H94.5725V22.079ZM101.641 29.09C101.269 29.09 100.942 29.036 100.66 28.928C100.378 28.82 100.141 28.667 99.9489 28.469C99.7629 28.265 99.6219 28.022 99.5259 27.74C99.4299 27.458 99.3819 27.143 99.3819 26.795V26.39C99.3819 25.994 99.4389 25.652 99.5529 25.364C99.6669 25.076 99.8199 24.839 100.012 24.653C100.204 24.467 100.426 24.329 100.678 24.239C100.93 24.149 101.191 24.104 101.461 24.104C102.115 24.104 102.598 24.29 102.91 24.662C103.228 25.028 103.387 25.568 103.387 26.282V26.84H100.219C100.225 27.41 100.363 27.809 100.633 28.037C100.903 28.265 101.281 28.379 101.767 28.379C102.085 28.379 102.355 28.349 102.577 28.289C102.805 28.223 103.027 28.133 103.243 28.019V28.622C103.105 28.73 102.901 28.835 102.631 28.937C102.367 29.039 102.037 29.09 101.641 29.09ZM101.425 24.77C101.287 24.77 101.149 24.791 101.011 24.833C100.873 24.875 100.744 24.95 100.624 25.058C100.51 25.16 100.414 25.301 100.336 25.481C100.264 25.661 100.225 25.892 100.219 26.174H102.523C102.523 25.67 102.43 25.31 102.244 25.094C102.058 24.878 101.785 24.77 101.425 24.77ZM109.446 29.108C108.996 29.108 108.588 29.051 108.222 28.937C107.862 28.823 107.55 28.646 107.286 28.406C107.028 28.16 106.827 27.848 106.683 27.47C106.545 27.086 106.476 26.624 106.476 26.084V25.535C106.476 24.935 106.56 24.437 106.728 24.041C106.896 23.639 107.118 23.318 107.394 23.078C107.676 22.832 108 22.658 108.366 22.556C108.738 22.454 109.122 22.403 109.518 22.403C109.914 22.403 110.244 22.442 110.508 22.52C110.778 22.598 111.009 22.688 111.201 22.79V23.528C111.009 23.438 110.778 23.351 110.508 23.267C110.238 23.177 109.887 23.132 109.455 23.132C109.065 23.132 108.735 23.195 108.465 23.321C108.201 23.447 107.988 23.615 107.826 23.825C107.664 24.035 107.547 24.278 107.475 24.554C107.409 24.824 107.376 25.106 107.376 25.4V26.066C107.376 26.402 107.406 26.711 107.466 26.993C107.526 27.275 107.634 27.521 107.79 27.731C107.952 27.935 108.168 28.097 108.438 28.217C108.708 28.331 109.053 28.388 109.473 28.388C109.683 28.388 109.89 28.373 110.094 28.343C110.298 28.307 110.469 28.265 110.607 28.217V26.525H109.284V25.814H111.444V28.739C111.198 28.841 110.907 28.928 110.571 29C110.235 29.072 109.86 29.108 109.446 29.108ZM114.196 29.09C113.728 29.09 113.371 28.973 113.125 28.739C112.879 28.499 112.756 28.145 112.756 27.677V24.194H113.566V27.551C113.566 27.845 113.626 28.058 113.746 28.19C113.866 28.316 114.097 28.379 114.439 28.379C114.685 28.379 114.907 28.346 115.105 28.28C115.309 28.208 115.495 28.127 115.663 28.037V24.194H116.482V29H115.789L115.708 28.586H115.654C115.456 28.724 115.237 28.844 114.997 28.946C114.757 29.042 114.49 29.09 114.196 29.09ZM118.981 29.09C118.765 29.09 118.567 29.063 118.387 29.009C118.213 28.955 118.06 28.871 117.928 28.757C117.796 28.643 117.694 28.502 117.622 28.334C117.55 28.166 117.514 27.965 117.514 27.731C117.514 27.311 117.637 26.987 117.883 26.759C118.129 26.531 118.483 26.39 118.945 26.336L120.196 26.192V25.724C120.196 25.544 120.175 25.394 120.133 25.274C120.091 25.154 120.022 25.061 119.926 24.995C119.836 24.929 119.716 24.884 119.566 24.86C119.422 24.83 119.245 24.815 119.035 24.815C118.807 24.815 118.597 24.83 118.405 24.86C118.219 24.89 118.054 24.923 117.91 24.959V24.365C118.12 24.281 118.342 24.218 118.576 24.176C118.81 24.128 119.071 24.104 119.359 24.104C119.887 24.104 120.292 24.218 120.574 24.446C120.862 24.674 121.006 25.031 121.006 25.517V29H120.358L120.268 28.595H120.214C120.1 28.733 119.944 28.85 119.746 28.946C119.548 29.042 119.293 29.09 118.981 29.09ZM119.188 28.46C119.392 28.46 119.584 28.43 119.764 28.37C119.95 28.304 120.094 28.223 120.196 28.127V26.804L119.152 26.912C118.888 26.942 118.687 27.017 118.549 27.137C118.417 27.251 118.351 27.44 118.351 27.704C118.351 27.962 118.426 28.154 118.576 28.28C118.732 28.4 118.936 28.46 119.188 28.46ZM122.328 24.194H123.102V24.761H123.147C123.213 24.683 123.297 24.608 123.399 24.536C123.501 24.458 123.612 24.389 123.732 24.329C123.852 24.269 123.975 24.224 124.101 24.194C124.233 24.158 124.362 24.14 124.488 24.14C124.626 24.14 124.725 24.152 124.785 24.176V24.914C124.725 24.902 124.659 24.893 124.587 24.887C124.521 24.881 124.467 24.878 124.425 24.878C124.203 24.878 123.975 24.917 123.741 24.995C123.507 25.073 123.306 25.169 123.138 25.283V29H122.328V24.194ZM127.325 29.09C127.097 29.09 126.866 29.054 126.632 28.982C126.404 28.91 126.194 28.79 126.002 28.622C125.816 28.448 125.663 28.22 125.543 27.938C125.429 27.656 125.372 27.305 125.372 26.885V26.489C125.372 26.069 125.423 25.709 125.525 25.409C125.633 25.109 125.78 24.863 125.966 24.671C126.152 24.479 126.374 24.338 126.632 24.248C126.89 24.152 127.172 24.104 127.478 24.104C127.766 24.104 128.006 24.137 128.198 24.203C128.396 24.263 128.558 24.329 128.684 24.401V22.079H129.494V29H128.81L128.729 28.613H128.684C128.546 28.757 128.363 28.874 128.135 28.964C127.913 29.048 127.643 29.09 127.325 29.09ZM127.586 28.424C127.85 28.424 128.072 28.382 128.252 28.298C128.438 28.208 128.582 28.121 128.684 28.037V25.094C128.582 25.01 128.429 24.941 128.225 24.887C128.027 24.833 127.811 24.806 127.577 24.806C127.361 24.806 127.169 24.833 127.001 24.887C126.833 24.941 126.689 25.031 126.569 25.157C126.455 25.277 126.365 25.439 126.299 25.643C126.239 25.841 126.209 26.084 126.209 26.372V26.849C126.209 27.155 126.242 27.41 126.308 27.614C126.374 27.812 126.467 27.971 126.587 28.091C126.713 28.211 126.86 28.298 127.028 28.352C127.196 28.4 127.382 28.424 127.586 28.424ZM130.872 24.194H131.682V29H130.872V24.194ZM130.845 22.394H131.709V23.24H130.845V22.394ZM134.221 29.09C134.005 29.09 133.807 29.063 133.627 29.009C133.453 28.955 133.3 28.871 133.168 28.757C133.036 28.643 132.934 28.502 132.862 28.334C132.79 28.166 132.754 27.965 132.754 27.731C132.754 27.311 132.877 26.987 133.123 26.759C133.369 26.531 133.723 26.39 134.185 26.336L135.436 26.192V25.724C135.436 25.544 135.415 25.394 135.373 25.274C135.331 25.154 135.262 25.061 135.166 24.995C135.076 24.929 134.956 24.884 134.806 24.86C134.662 24.83 134.485 24.815 134.275 24.815C134.047 24.815 133.837 24.83 133.645 24.86C133.459 24.89 133.294 24.923 133.15 24.959V24.365C133.36 24.281 133.582 24.218 133.816 24.176C134.05 24.128 134.311 24.104 134.599 24.104C135.127 24.104 135.532 24.218 135.814 24.446C136.102 24.674 136.246 25.031 136.246 25.517V29H135.598L135.508 28.595H135.454C135.34 28.733 135.184 28.85 134.986 28.946C134.788 29.042 134.533 29.09 134.221 29.09ZM134.428 28.46C134.632 28.46 134.824 28.43 135.004 28.37C135.19 28.304 135.334 28.223 135.436 28.127V26.804L134.392 26.912C134.128 26.942 133.927 27.017 133.789 27.137C133.657 27.251 133.591 27.44 133.591 27.704C133.591 27.962 133.666 28.154 133.816 28.28C133.972 28.4 134.176 28.46 134.428 28.46ZM137.569 24.194H138.343V24.608H138.388C138.586 24.47 138.829 24.353 139.117 24.257C139.405 24.155 139.693 24.104 139.981 24.104C140.449 24.104 140.794 24.209 141.016 24.419C141.244 24.623 141.358 24.959 141.358 25.427V29H140.548V25.598C140.548 25.46 140.533 25.343 140.503 25.247C140.479 25.145 140.431 25.064 140.359 25.004C140.293 24.938 140.2 24.89 140.08 24.86C139.96 24.83 139.807 24.815 139.621 24.815C139.411 24.815 139.195 24.848 138.973 24.914C138.751 24.98 138.553 25.052 138.379 25.13V29H137.569V24.194Z" fill="white" fill-opacity="0.6"/>
</svg>
