<svg width="183" height="183" viewBox="0 0 183 183" fill="none" xmlns="http://www.w3.org/2000/svg">
<path d="M161.986 91.5C161.986 130.429 130.429 161.986 91.5 161.986C52.5715 161.986 21.0137 130.429 21.0137 91.5C21.0137 52.5715 52.5715 21.0137 91.5 21.0137C130.429 21.0137 161.986 52.5715 161.986 91.5Z" stroke="white" stroke-width="2"/>
<path d="M51 82.8305L58.7246 85.7978M51 82.8305H58.7246M51 82.8305L58.7246 75.9517M51 82.8305V124.765L54.6936 128.441M131.055 82.8305L123.33 85.7978M131.055 82.8305L123.33 75.9517M131.055 82.8305H123.33M131.055 82.8305V124.765L127.361 128.441M58.7246 85.7978L91.0273 98.2065L123.33 85.7978M58.7246 85.7978V82.8305M123.33 85.7978V82.8305M82.6005 108.69L54.6936 128.441M99.4541 108.69L127.361 128.441M58.7246 82.8305V75.9517M58.7246 75.9517V62.562L65.0447 56.2718H80.8243M80.8243 56.2718H101.23M80.8243 56.2718L87.8673 50H94.1874L101.23 56.2718M101.23 56.2718H117.01L123.33 62.562V75.9517M123.33 75.9517V82.8305M54.6936 128.441L57.3201 131.055H124.735L127.361 128.441M100.507 76.8897C100.507 82.1007 96.2631 86.325 91.0273 86.325C85.7916 86.325 81.5472 82.1007 81.5472 76.8897C81.5472 71.6787 85.7916 67.4544 91.0273 67.4544C96.2631 67.4544 100.507 71.6787 100.507 76.8897Z" stroke="white" stroke-width="2"/>
<path d="M97.0316 73.7089L95.2229 72.0156L89.3695 77.8807L86.5056 75.5739L85.0234 77.2672L89.5202 81.0218L97.0316 73.7089Z" fill="#FFE500"/>
<mask id="mask0_2574_24531" style="mask-type:alpha" maskUnits="userSpaceOnUse" x="20" y="0" width="163" height="163">
<circle cx="101.507" cy="81.4932" r="80.4932" transform="rotate(90 101.507 81.4932)" stroke="white" stroke-width="2"/>
</mask>
<g mask="url(#mask0_2574_24531)">
<rect x="193.382" y="-17.0742" width="89.8113" height="85.3083" transform="rotate(90 193.382 -17.0742)" fill="white" fill-opacity="0.2"/>
</g>
<mask id="mask1_2574_24531" style="mask-type:alpha" maskUnits="userSpaceOnUse" x="0" y="20" width="163" height="163">
<circle cx="81.4932" cy="101.507" r="80.4932" transform="rotate(-90 81.4932 101.507)" stroke="white" stroke-width="2"/>
</mask>
<g mask="url(#mask1_2574_24531)">
<rect x="-10.3819" y="200.074" width="89.8113" height="85.3083" transform="rotate(-90 -10.3819 200.074)" fill="white" fill-opacity="0.3"/>
</g>
</svg>
