<svg width="183" height="183" viewBox="0 0 183 183" fill="none" xmlns="http://www.w3.org/2000/svg">
<mask id="mask0_361_24618" style="mask-type:alpha" maskUnits="userSpaceOnUse" x="20" y="0" width="163" height="163">
<circle cx="101.507" cy="81.4932" r="80.4932" transform="rotate(90 101.507 81.4932)" stroke="white" stroke-width="2"/>
</mask>
<g mask="url(#mask0_361_24618)">
<rect x="193.382" y="-17.0742" width="89.8113" height="85.3083" transform="rotate(90 193.382 -17.0742)" fill="white" fill-opacity="0.2"/>
</g>
<mask id="mask1_361_24618" style="mask-type:alpha" maskUnits="userSpaceOnUse" x="0" y="20" width="163" height="163">
<circle cx="81.4932" cy="101.507" r="80.4932" transform="rotate(-90 81.4932 101.507)" stroke="white" stroke-width="2"/>
</mask>
<g mask="url(#mask1_361_24618)">
<rect x="-9.88196" y="199.574" width="88.8113" height="84.3083" transform="rotate(-90 -9.88196 199.574)" fill="white" fill-opacity="0.3" stroke="#3F464A"/>
</g>
<path d="M160.986 91.5C160.986 130.429 129.428 161.986 90.4997 161.986C51.5712 161.986 20.0134 130.429 20.0134 91.5C20.0134 52.5715 51.5712 21.0137 90.4997 21.0137C129.428 21.0137 160.986 52.5715 160.986 91.5Z" stroke="white" stroke-width="2"/>
<path d="M60.1677 116.058H57.8804L59.4976 117.669L58.6532 118.509L57.036 116.898V119.175H55.8417V116.898L54.2245 118.509L53.3801 117.669L54.9973 116.058H52.71V114.871H54.9973L53.8881 113.766L53.3801 113.261L54.2245 112.421L55.5755 113.766L55.8417 114.031V111.754H57.036V114.031L57.3021 113.766L58.6532 112.421L59.4976 113.261L58.9896 113.766L57.8804 114.871H60.1677V116.058Z" fill="#FFE500"/>
<path d="M60.1677 92.5074H57.8804L59.4976 94.1177L58.6532 94.9579L57.036 93.3475V95.6246H55.8417V93.3475L54.2245 94.9579L53.3801 94.1177L54.9973 92.5074H52.71V91.3204H54.9973L53.8881 90.2154L53.3801 89.71L54.2245 88.8699L55.5755 90.2154L55.8417 90.4803V88.2031H57.036V90.4803L57.3021 90.2154L58.6532 88.8699L59.4976 89.71L58.9896 90.2154L57.8804 91.3204H60.1677V92.5074Z" fill="#FFE500"/>
<path d="M69.1872 116.058H66.8999L68.5171 117.669L67.6727 118.509L66.0555 116.898V119.175H64.8612V116.898L63.244 118.509L62.3996 117.669L64.0168 116.058H61.7295V114.871H64.0168L62.9076 113.766L62.3996 113.261L63.244 112.421L64.595 113.766L64.8612 114.031V111.754H66.0555V114.031L66.3217 113.766L67.6727 112.421L68.5171 113.261L68.0091 113.766L66.8999 114.871H69.1872V116.058Z" fill="#FFE500"/>
<path d="M69.1872 92.5074H66.8999L68.5171 94.1177L67.6727 94.9579L66.0555 93.3475V95.6246H64.8612V93.3475L63.244 94.9579L62.3996 94.1177L64.0168 92.5074H61.7295V91.3204H64.0168L62.9076 90.2154L62.3996 89.71L63.244 88.8699L64.595 90.2154L64.8612 90.4803V88.2031H66.0555V90.4803L66.3217 90.2154L67.6727 88.8699L68.5171 89.71L68.0091 90.2154L66.8999 91.3204H69.1872V92.5074Z" fill="#FFE500"/>
<path d="M78.2048 116.058H75.9175L77.5347 117.669L76.6903 118.509L75.0731 116.898V119.175H73.8788V116.898L72.2616 118.509L71.4172 117.669L73.0344 116.058H70.7471V114.871H73.0344L71.9252 113.766L71.4172 113.261L72.2616 112.421L73.6126 113.766L73.8788 114.031V111.754H75.0731V114.031L75.3392 113.766L76.6903 112.421L77.5347 113.261L77.0267 113.766L75.9175 114.871H78.2048V116.058Z" fill="#FFE500"/>
<path d="M78.2048 92.5074H75.9175L77.5347 94.1177L76.6903 94.9579L75.0731 93.3475V95.6246H73.8788V93.3475L72.2616 94.9579L71.4172 94.1177L73.0344 92.5074H70.7471V91.3204H73.0344L71.9252 90.2154L71.4172 89.71L72.2616 88.8699L73.6126 90.2154L73.8788 90.4803V88.2031H75.0731V90.4803L75.3392 90.2154L76.6903 88.8699L77.5347 89.71L77.0267 90.2154L75.9175 91.3204H78.2048V92.5074Z" fill="#FFE500"/>
<path d="M87.3239 116.058H85.0366L86.6538 117.669L85.8094 118.509L84.1922 116.898V119.175H82.9979V116.898L81.3807 118.509L80.5363 117.669L82.1535 116.058H79.8662V114.871H82.1535L81.0443 113.766L80.5363 113.261L81.3807 112.421L82.7318 113.766L82.9979 114.031V111.754H84.1922V114.031L84.4584 113.766L85.8094 112.421L86.6538 113.261L86.1458 113.766L85.0366 114.871H87.3239V116.058Z" fill="#FFE500"/>
<path d="M87.3239 92.5074H85.0366L86.6538 94.1177L85.8094 94.9579L84.1922 93.3475V95.6246H82.9979V93.3475L81.3807 94.9579L80.5363 94.1177L82.1535 92.5074H79.8662V91.3204H82.1535L81.0443 90.2154L80.5363 89.71L81.3807 88.8699L82.7318 90.2154L82.9979 90.4803V88.2031H84.1922V90.4803L84.4584 90.2154L85.8094 88.8699L86.6538 89.71L86.1458 90.2154L85.0366 91.3204H87.3239V92.5074Z" fill="#FFE500"/>
<path d="M96.9069 92.5074H94.6196L96.2368 94.1177L95.3924 94.9579L93.7752 93.3475V95.6246H92.5809V93.3475L90.9637 94.9579L90.1193 94.1177L91.7365 92.5074H89.4492V91.3204H91.7365L90.6273 90.2154L90.1193 89.71L90.9637 88.8699L92.3148 90.2154L92.5809 90.4803V88.2031H93.7752V90.4803L94.0414 90.2154L95.3924 88.8699L96.2368 89.71L95.7288 90.2154L94.6196 91.3204H96.9069V92.5074Z" fill="#FFE500"/>
<path d="M60.1677 68.9566H57.8804L59.4976 70.567L58.6532 71.4071L57.036 69.7967V72.0738H55.8417V69.7967L54.2245 71.4071L53.3801 70.567L54.9973 68.9566H52.71V67.7696H54.9973L53.8881 66.6647L53.3801 66.1592L54.2245 65.3191L55.5755 66.6647L55.8417 66.9295V64.6523H57.036V66.9295L57.3021 66.6647L58.6532 65.3191L59.4976 66.1592L58.9896 66.6647L57.8804 67.7696H60.1677V68.9566Z" fill="#FFE500"/>
<path d="M69.5095 68.9566H67.2222L68.8393 70.567L67.995 71.4071L66.3778 69.7967V72.0738H65.1835V69.7967L63.5663 71.4071L62.7219 70.567L64.3391 68.9566H62.0518V67.7696H64.3391L63.2299 66.6647L62.7219 66.1592L63.5663 65.3191L64.9173 66.6647L65.1835 66.9295V64.6523H66.3778V66.9295L66.6439 66.6647L67.995 65.3191L68.8393 66.1592L68.3314 66.6647L67.2222 67.7696H69.5095V68.9566Z" fill="#FFE500"/>
<path d="M78.8511 68.9566H76.5638L78.181 70.567L77.3366 71.4071L75.7194 69.7967V72.0738H74.5251V69.7967L72.9079 71.4071L72.0635 70.567L73.6807 68.9566H71.3934V67.7696H73.6807L72.5715 66.6647L72.0635 66.1592L72.9079 65.3191L74.259 66.6647L74.5251 66.9295V64.6523H75.7194V66.9295L75.9856 66.6647L77.3366 65.3191L78.181 66.1592L77.673 66.6647L76.5638 67.7696H78.8511V68.9566Z" fill="#FFE500"/>
<path d="M128 59H54L48 65V76.7188H133.725V64.7246L128 59Z" stroke="white" stroke-width="2" stroke-miterlimit="10"/>
<path d="M133.725 82.5007H48V100.22H133.725V82.5007Z" stroke="white" stroke-width="2" stroke-miterlimit="10"/>
<path d="M133.725 106.281H48V118L54 124H128L133.725 118.275V106.281Z" stroke="white" stroke-width="2" stroke-miterlimit="10"/>
</svg>
